HIERARCHY
ROOT hips
{
  OFFSET 0 10.6860622 2.3727825e-15
  CHANNELS 6 Xposition Yposition Zposition Yrotation Xrotation Zrotation
  JOINT leftUpperLeg
  {
    OFFSET 0.6642549969 -0.9402397400000004 0
    CHANNELS 3 Yrotation Xrotation Zrotation
    JOINT leftLowerLeg
    {
      OFFSET 0 -3.997221335632195 0
      CHANNELS 3 Yrotation Xrotation Zrotation
      JOINT leftFoot
      {
        OFFSET -0.13777839790000004 -4.6145792000000005 -0.22186036399999998
        CHANNELS 3 Yrotation Xrotation Zrotation
        JOINT leftToes
        {
          OFFSET -0.03777410834999995 -0.9130806927000008 0.85230013
          CHANNELS 3 Yrotation Xrotation Zrotation
          End Site
          {
            OFFSET -0.03777410834999995 -0.9130806927000008 0.85230013
          }
        }
      }
    }
  }
  JOINT rightUpperLeg
  {
    OFFSET -0.6642778626 -0.9402397400000004 0
    CHANNELS 3 Yrotation Xrotation Zrotation
    JOINT rightLowerLeg
    {
      OFFSET 0 -3.997221452859387 0
      CHANNELS 3 Yrotation Xrotation Zrotation
      JOINT rightFoot
      {
        OFFSET 0.1377926176 -4.6145792000000005 -0.22185782299999995
        CHANNELS 3 Yrotation Xrotation Zrotation
        JOINT rightToes
        {
          OFFSET 0.037780746850000047 -0.9130806927000008 0.85230167
          CHANNELS 3 Yrotation Xrotation Zrotation
          End Site
          {
            OFFSET 0.037780746850000047 -0.9130806927000008 0.85230167
          }
        }
      }
    }
  }
  JOINT spine
  {
    OFFSET 0 0.13988381660000015 0
    CHANNELS 3 Yrotation Xrotation Zrotation
    JOINT chest
    {
      OFFSET 0 0.6191039003973773 0
      CHANNELS 3 Yrotation Xrotation Zrotation
      JOINT upperChest
      {
        OFFSET 0 0.9855186130586943 0
        CHANNELS 3 Yrotation Xrotation Zrotation
        JOINT leftShoulder
        {
          OFFSET 0.1807663869 1.5087829790000005 0
          CHANNELS 3 Yrotation Xrotation Zrotation
          JOINT leftUpperArm
          {
            OFFSET 0.5985063006419806 0 0
            CHANNELS 3 Yrotation Xrotation Zrotation
            JOINT leftLowerArm
            {
              OFFSET 2.2993332369501065 0 0
              CHANNELS 3 Yrotation Xrotation Zrotation
              JOINT leftHand
              {
                OFFSET 2.395047042602395 0 0
                CHANNELS 3 Yrotation Xrotation Zrotation
                JOINT leftIndexProximal
                {
                  OFFSET 0.5766295810000004 0.04556643899499946 0.17265095988184
                  CHANNELS 3 Yrotation Xrotation Zrotation
                  JOINT leftIndexIntermediate
                  {
                    OFFSET 0.2957229000000008 -0.019352197700001517 -0.007932640616999987
                    CHANNELS 3 Yrotation Xrotation Zrotation
                    JOINT leftIndexDistal
                    {
                      OFFSET 0.19008243099999922 -0.012484908149998475 -0.002786250786000012
                      CHANNELS 3 Yrotation Xrotation Zrotation
                      End Site
                      {
                        OFFSET 0.19008243099999922 -0.012484908149998475 -0.002786250786000012
                      }
                    }
                  }
                }
                JOINT leftMiddleProximal
                {
                  OFFSET 0.5834975091000001 0.0524350405149987 0.02204081888183999
                  CHANNELS 3 Yrotation Xrotation Zrotation
                  JOINT leftMiddleIntermediate
                  {
                    OFFSET 0.33880573540000003 -0.019871473270000717 -0.00000971183179999946
                    CHANNELS 3 Yrotation Xrotation Zrotation
                    JOINT leftMiddleDistal
                    {
                      OFFSET 0.20676022730000088 -0.012221336379999448 0.0001471936708000235
                      CHANNELS 3 Yrotation Xrotation Zrotation
                      End Site
                      {
                        OFFSET 0.20676022730000088 -0.012221336379999448 0.0001471936708000235
                      }
                    }
                  }
                }
                JOINT leftLittleProximal
                {
                  OFFSET 0.5344154683999995 -0.012880921405001189 -0.24414037221816004
                  CHANNELS 3 Yrotation Xrotation Zrotation
                  JOINT leftLittleIntermediate
                  {
                    OFFSET 0.21758961730000093 -0.011650919939999227 0.011893592810000034
                    CHANNELS 3 Yrotation Xrotation Zrotation
                    JOINT leftLittleDistal
                    {
                      OFFSET 0.1475273964999999 -0.008152365682999818 0.006001092492999946
                      CHANNELS 3 Yrotation Xrotation Zrotation
                      End Site
                      {
                        OFFSET 0.1475273964999999 -0.008152365682999818 0.006001092492999946
                      }
                    }
                  }
                }
                JOINT leftRingProximal
                {
                  OFFSET 0.5799399463000003 0.026911854694997794 -0.12150566991816003
                  CHANNELS 3 Yrotation Xrotation Zrotation
                  JOINT leftRingIntermediate
                  {
                    OFFSET 0.26167887460000006 -0.013480186499999602 0.010996293000000053
                    CHANNELS 3 Yrotation Xrotation Zrotation
                    JOINT leftRingDistal
                    {
                      OFFSET 0.17667108799999987 -0.008990287899999228 0.0055541023999999065
                      CHANNELS 3 Yrotation Xrotation Zrotation
                      End Site
                      {
                        OFFSET 0.17667108799999987 -0.008990287899999228 0.0055541023999999065
                      }
                    }
                  }
                }
                JOINT leftThumbProximal
                {
                  OFFSET 0.11018806699999972 -0.09448718900500053 0.17047963138184
                  CHANNELS 3 Yrotation Xrotation Zrotation
                  JOINT leftThumbIntermediate
                  {
                    OFFSET 0.31062601459999983 -0.08126270900000132 0.15443142000000007
                    CHANNELS 3 Yrotation Xrotation Zrotation
                    JOINT leftThumbDistal
                    {
                      OFFSET 0.21627175790000086 -0.08833193599999878 0.018771167799999988
                      CHANNELS 3 Yrotation Xrotation Zrotation
                      End Site
                      {
                        OFFSET 0.21627175790000086 -0.08833193599999878 0.018771167799999988
                      }
                    }
                  }
                }
              }
            }
          }
        }
        JOINT neck
        {
          OFFSET 0 1.5463305265074576 0
          CHANNELS 3 Yrotation Xrotation Zrotation
          JOINT head
          {
            OFFSET 0 0.8456443600000344 0
            CHANNELS 3 Yrotation Xrotation Zrotation
            JOINT leftEye
            {
              OFFSET 0.30408573140000006 0.5104519199999995 0.1276382305
              CHANNELS 3 Yrotation Xrotation Zrotation
              End Site
              {
                OFFSET 0.30408573140000006 0.5104519199999995 0.1276382305
              }
            }
            JOINT rightEye
            {
              OFFSET -0.30409491089999996 0.5104519199999995 0.1276379445
              CHANNELS 3 Yrotation Xrotation Zrotation
              End Site
              {
                OFFSET -0.30409491089999996 0.5104519199999995 0.1276379445
              }
            }
            JOINT jaw
            {
              OFFSET -3.155239131000001e-7 -0.11984121820000082 0.60178107
              CHANNELS 3 Yrotation Xrotation Zrotation
              End Site
              {
                OFFSET -3.155239131000001e-7 -0.11984121820000082 0.60178107
              }
            }
          }
        }
        JOINT rightShoulder
        {
          OFFSET -0.1807303465 1.5087829790000005 0
          CHANNELS 3 Yrotation Xrotation Zrotation
          JOINT rightUpperArm
          {
            OFFSET -0.5985063796536958 0 0
            CHANNELS 3 Yrotation Xrotation Zrotation
            JOINT rightLowerArm
            {
              OFFSET -2.2993322059002854 0 0
              CHANNELS 3 Yrotation Xrotation Zrotation
              JOINT rightHand
              {
                OFFSET -2.395045314457259 0 0
                CHANNELS 3 Yrotation Xrotation Zrotation
                JOINT rightIndexProximal
                {
                  OFFSET -0.5764487688300002 0.0441371204405987 0.17361932004999997
                  CHANNELS 3 Yrotation Xrotation Zrotation
                  JOINT rightIndexIntermediate
                  {
                    OFFSET -0.29573011380000047 -0.01934826376999843 -0.007698921482999974
                    CHANNELS 3 Yrotation Xrotation Zrotation
                    JOINT rightIndexDistal
                    {
                      OFFSET -0.19008373999999884 -0.012503266380000655 -0.0026365778999999897
                      CHANNELS 3 Yrotation Xrotation Zrotation
                      End Site
                      {
                        OFFSET -0.19008373999999884 -0.012503266380000655 -0.0026365778999999897
                      }
                    }
                  }
                }
                JOINT rightMiddleProximal
                {
                  OFFSET -0.5834852037300005 0.05211639405060153 0.02307162440000001
                  CHANNELS 3 Yrotation Xrotation Zrotation
                  JOINT rightMiddleIntermediate
                  {
                    OFFSET -0.33880114510000003 -0.019952774050000954 0.0002455003561999819
                    CHANNELS 3 Yrotation Xrotation Zrotation
                    JOINT rightMiddleDistal
                    {
                      OFFSET -0.20675694929999955 -0.012273788999999091 0.00030209124000002766
                      CHANNELS 3 Yrotation Xrotation Zrotation
                      End Site
                      {
                        OFFSET -0.20675694929999955 -0.012273788999999091 0.00030209124000002766
                      }
                    }
                  }
                }
                JOINT rightLittleProximal
                {
                  OFFSET -0.5346811737299992 -0.011214256288399227 -0.24363941305000003
                  CHANNELS 3 Yrotation Xrotation Zrotation
                  JOINT rightLittleIntermediate
                  {
                    OFFSET -0.21757715980000092 -0.011771559690000988 0.01201554387
                    CHANNELS 3 Yrotation Xrotation Zrotation
                    JOINT rightLittleDistal
                    {
                      OFFSET -0.1475201849000004 -0.00822055339600003 0.006082065407000015
                      CHANNELS 3 Yrotation Xrotation Zrotation
                      End Site
                      {
                        OFFSET -0.1475201849000004 -0.00822055339600003 0.006082065407000015
                      }
                    }
                  }
                }
                JOINT rightRingProximal
                {
                  OFFSET -0.5800810755299999 0.027657985680600072 -0.12066365025000003
                  CHANNELS 3 Yrotation Xrotation Zrotation
                  JOINT rightRingIntermediate
                  {
                    OFFSET -0.26166445029999974 -0.013623118409999302 0.011164098990000045
                    CHANNELS 3 Yrotation Xrotation Zrotation
                    JOINT rightRingDistal
                    {
                      OFFSET -0.17666387530000027 -0.009072900100000503 0.005668185599999959
                      CHANNELS 3 Yrotation Xrotation Zrotation
                      End Site
                      {
                        OFFSET -0.17666387530000027 -0.009072900100000503 0.005668185599999959
                      }
                    }
                  }
                }
                JOINT rightThumbProximal
                {
                  OFFSET -0.10997596379000074 -0.09577489355940072 0.16989765924999997
                  CHANNELS 3 Yrotation Xrotation Zrotation
                  JOINT rightThumbIntermediate
                  {
                    OFFSET -0.31036620999999986 -0.08229339117999834 0.15440884469999996
                    CHANNELS 3 Yrotation Xrotation Zrotation
                    JOINT rightThumbDistal
                    {
                      OFFSET -0.21631306399999906 -0.08825326400000111 0.018656797720000014
                      CHANNELS 3 Yrotation Xrotation Zrotation
                      End Site
                      {
                        OFFSET -0.21631306399999906 -0.08825326400000111 0.018656797720000014
                      }
                    }
                  }
                }
              }
            }
          }
        }
      }
    }
  }
}
MOTION
Frames: 6
Frame Time: 0.03333333333333333
0 -10.021630262118268 0.2555604368149332 0 -82.00038557774673 0 47.08446205913708 -23.046860019681695 -2.430892565036637 4.452572129912583 41.520596853156064 8.540420854152645 -0.27751685496395423 18.17430203980621 0.8002854581140286 0 0 0 -47.08797330141642 -23.04840207910719 2.428332997652978 -4.45845278488407 41.51999020850304 -8.54648964440714 0.27329416267984963 18.17428406774473 -0.8045026631067635 0 0 0 -0.020015570171427122 -13.139234938199783 -0.017960758290560146 -0.7223000709322632 -3.725415627359613 -0.12232598572889442 0 0 0 -0.14710474151677708 16.19440584485543 -15.380235726329051 -19.969483473388493 -50.396613524155796 -55.55450803727752 -7.37950077810936 33.56058797427853 -18.32987666425208 21.874436060194228 -10.677951518154643 -46.107306649017 0 0 0 0 0 0 0 0 0 0 0 0 0 0 0 0 0 0 0 0 0 0 0 0 0 0 0 0 0 0 0 0 0 0 0 0 0 0 0 0 0 0 0 0 0 0 19.52587217553456 0 6.441598623500626 7.215850984770613 19.288099684248312 0 0 0 0 0 0 0 0 0 0.14306164993269455 16.194877042101158 15.376061544003521 19.96773810218285 -50.39390818142903 55.55036542239459 7.3743344231108185 33.56140763197773 18.324673516773892 -21.877378327493386 -10.6772799226225 46.10380178078232 0 0 0 0 0 0 0 0 0 0 0 0 0 0 0 0 0 0 0 0 0 0 0 0 0 0 0 0 0 0 0 0 0 0 0 0 0 0 0 0 0 0 0 0 0
0 -9.955845169282977 0.2555604368149332 0 -82.00038557774673 0 45.44344542638731 -22.320559594810444 -1.930769903038423 4.452572129912583 41.520596853156064 8.540420854152645 0.7480145344997219 18.087584985038827 -0.0966776353073948 0 0 0 -44.516898242462204 -22.271501815684932 2.0451194047660928 -4.45845278488407 41.51999020850304 -8.54648964440714 -1.5673697442127892 18.170536933340706 0.5233282884555395 0 0 0 -0.020166707699359916 -11.939155960541301 -0.018138270347860943 -0.7262843147778002 -7.119624025632505 -0.07873686998892722 0 0 0 1.386544319512289 18.936803278214082 -14.0916772860797 -20.164812762397222 -50.618775516201744 -56.700240068782875 -7.9278809590513815 33.40335327505185 -19.135501328816396 21.874436060194228 -10.677951518154643 -46.107306649017 0 0 0 0 0 0 0 0 0 0 0 0 0 0 0 0 0 0 0 0 0 0 0 0 0 0 0 0 0 0 0 0 0 0 0 0 0 0 0 0 0 0 0 0 0 0 19.52587217553456 0 6.320165018395412 7.272164591417184 18.905679770465156 0 0 0 0 0 0 0 0 0 -1.487692416544974 18.917502630121103 14.009095385873874 20.16895378669169 -50.615239325160324 56.7216835118736 7.93675555131524 33.39441116587435 19.15280621310709 -21.877382847438895 -10.67727905380647 46.103806694636 0 0 0 0 0 0 0 0 0 0 0 0 0 0 0 0 0 0 0 0 0 0 0 0 0 0 0 0 0 0 0 0 0 0 0 0 0 0 0 0 0 0 0 0 0
0 -9.922952354473061 0.2555604368149332 0 -82.00038557774673 0 44.62826161121049 -21.95234342494064 -1.690012739457608 4.452572129912583 41.520596853156064 8.540420854152645 1.2613440600761845 18.04993824312856 -0.5457877427854392 0 0 0 -43.23719213614675 -21.876805718385683 1.8682725165892957 -4.45845278488407 41.51999020850304 -8.54648964440714 -2.488824666094276 18.183881412005327 1.1879941210945901 0 0 0 -0.02024323166555914 -11.338951118002514 -0.018227263102853303 -0.7292758779525348 -8.82047198718477 -0.05667400382612629 0 0 0 2.1892334539117217 20.297855807733146 -13.408648023806881 -20.26020976292664 -50.73081728063884 -57.27490072188275 -8.200711388759633 33.32231474669328 -19.537111057442463 21.874436060194228 -10.677951518154643 -46.107306649017 0 0 0 0 0 0 0 0 0 0 0 0 0 0 0 0 0 0 0 0 0 0 0 0 0 0 0 0 0 0 0 0 0 0 0 0 0 0 0 0 0 0 0 0 0 0 19.52587217553456 0 6.259284799176699 7.300028802571092 18.714357369056184 0 0 0 0 0 0 0 0 0 -2.3408842054117396 20.26707428392013 13.284725451319066 20.26726168367507 -50.726911176643306 57.30916749843413 8.216488871948672 33.30837909253336 19.565564380688027 -21.877382847438895 -10.67727905380647 46.103806694636 0 0 0 0 0 0 0 0 0 0 0 0 0 0 0 0 0 0 0 0 0 0 0 0 0 0 0 0 0 0 0 0 0 0 0 0 0 0 0 0 0 0 0 0 0
0 -9.890059808055417 0.2555604368149332 0 -82.00038557774673 0 43.81667851060057 -21.580915710300985 -1.455483414341272 4.452572129912583 41.520596853156064 8.540420854152645 1.7749587711436337 18.016115138767027 -0.9952258885808386 0 0 0 -41.96169888518651 -21.47836129658861 1.7013498337690325 -4.45845278488407 41.51999020850304 -8.54648964440714 -3.410620955487249 18.20739893552526 1.8527573626491125 0 0 0 -0.020320632857199906 -10.738681022089585 -0.018318041185591234 -0.7329518235716448 -10.522820910109868 -0.034387512220783095 0 0 0 3.01730358688088 21.65067963452702 -12.698373748166986 -20.35408283200518 -50.843435945722646 -57.850685825022474 -8.472612325948106 33.23968964092876 -19.937894240657606 21.874436060194228 -10.677951518154643 -46.107306649017 0 0 0 0 0 0 0 0 0 0 0 0 0 0 0 0 0 0 0 0 0 0 0 0 0 0 0 0 0 0 0 0 0 0 0 0 0 0 0 0 0 0 0 0 0 0 19.52587217553456 0 6.198295796399242 7.3276933216014815 18.522954381503194 0 0 0 0 0 0 0 0 0 -3.2207729907848655 21.607259423981052 12.53167361332037 20.363990871809058 -50.83924461705146 57.89785576790457 8.495202518751285 33.22065192944295 19.977415955908427 -21.877382847438895 -10.67727905380647 46.103806694636 0 0 0 0 0 0 0 0 0 0 0 0 0 0 0 0 0 0 0 0 0 0 0 0 0 0 0 0 0 0 0 0 0 0 0 0 0 0 0 0 0 0 0 0 0
0 -9.824274446827856 0.2555604368149332 0 -82.00038557774673 0 42.204383860008235 -20.828953528136186 -1.0051534756583793 4.452572129912583 41.520596853156064 8.540420854152645 2.802775195157628 17.95996354649402 -1.8948203374364 0 0 0 -39.42405111482963 -20.671423321927044 1.3974061973682586 -4.45845278488407 41.51999020850304 -8.54648964440714 -5.254023646748865 18.284908473079305 3.181363695195682 0 0 0 -0.020478501264335397 -9.538077245171747 -0.018500893219881475 -0.7424276195249803 -13.929013946931295 0.010984828918729147 0 0 0 4.7542299822730145 24.32712690725791 -11.191613678324405 -20.53706759167775 -51.0705203693484 -59.00572535620273 -9.013539049770763 33.06967260407409 -20.736896312083715 21.874436060194228 -10.677951518154643 -46.107306649017 0 0 0 0 0 0 0 0 0 0 0 0 0 0 0 0 0 0 0 0 0 0 0 0 0 0 0 0 0 0 0 0 0 0 0 0 0 0 0 0 0 0 0 0 0 0 19.52587217553456 0 6.075994874970217 7.382430047841115 18.139920861864613 0 0 0 0 0 0 0 0 0 -5.065307231416699 24.254601904771974 10.935023585162481 20.55265893131811 -51.06577050717986 59.07865706945023 9.049502817353144 33.04019714756356 20.798340756113824 -21.877382847438895 -10.67727905380647 46.103806694636 0 0 0 0 0 0 0 0 0 0 0 0 0 0 0 0 0 0 0 0 0 0 0 0 0 0 0 0 0 0 0 0 0 0 0 0 0 0 0 0 0 0 0 0 0
0 -9.791381900410212 0.2555604368149332 0 -82.00038557774673 0 41.40370422801624 -20.448658949990527 -0.7893612566926266 4.452572129912583 41.520596853156064 8.540420854152645 3.3168383352298973 17.937638567089827 -2.344837399292768 0 0 0 -38.162311025820266 -20.2635539761509 1.260434138607907 -4.45845278488407 41.51999020850304 -8.54648964440714 -6.175016860302217 18.338852963566623 3.8446027477574383 0 0 0 -0.020559020682997916 -8.937807799487729 -0.018592963128695364 -0.7482679401942973 -15.631355626416006 0.03414282624434597 0 0 0 5.665504993051269 25.648398262457444 -10.392794494442958 -20.626152343564556 -51.18493616288879 -59.5849103732955 -9.282529131233868 32.98230580610759 -21.13508061706422 21.874436060194228 -10.677951518154643 -46.107306649017 0 0 0 0 0 0 0 0 0 0 0 0 0 0 0 0 0 0 0 0 0 0 0 0 0 0 0 0 0 0 0 0 0 0 0 0 0 0 0 0 0 0 0 0 0 0 19.52587217553456 0 6.014686653179489 7.409503055455628 17.94829608663003 0 0 0 0 0 0 0 0 0 -6.032351844000054 25.559255104019606 10.089114166471639 20.644524039523258 -51.179934817484344 59.670761888080165 9.325051404681078 32.947491547972035 21.207371397331173 -21.877382847438895 -10.67727905380647 46.103806694636 0 0 0 0 0 0 0 0 0 0 0 0 0 0 0 0 0 0 0 0 0 0 0 0 0 0 0 0 0 0 0 0 0 0 0 0 0 0 0 0 0 0 0 0 0
